<svg width="233" height="56" viewBox="0 0 233 56" fill="none" xmlns="http://www.w3.org/2000/svg">
<rect x="0.5" width="232" height="56" rx="28" fill="#D7B12D"/>
<path d="M35.8125 38.4785C35.3385 38.4785 34.9694 38.3327 34.7051 38.041C34.4499 37.7585 34.2129 37.2617 33.9941 36.5508L28.7031 19.3789H25.5723V17.4238H35.0879V19.3789H32.2031L36.1816 33.8027L40.1328 19.3789H42.8672L46.8457 33.8027L50.5781 19.3789H47.8027V17.4238H55.3906V19.3789H52.9023L48.1445 36.5508C47.944 37.2982 47.7161 37.804 47.4609 38.0684C47.2148 38.3418 46.8503 38.4785 46.3672 38.4785C45.9023 38.4785 45.5697 38.3418 45.3691 38.0684C45.1777 37.804 44.9727 37.2982 44.7539 36.5508L41.1309 24.1641L37.6855 36.5508C37.4941 37.2344 37.2572 37.7266 36.9746 38.0273C36.7012 38.3281 36.3138 38.4785 35.8125 38.4785ZM56.3887 38V36.4688H58.9043V19.1055H56.2246V17.4238H61.8438V25.9277C62.1901 25.2168 62.6458 24.6289 63.2109 24.1641C63.7852 23.6901 64.3548 23.3665 64.9199 23.1934C65.4668 23.0202 66.041 22.9336 66.6426 22.9336C67.0254 22.9336 67.3854 22.9609 67.7227 23.0156C68.069 23.0703 68.4655 23.2025 68.9121 23.4121C69.3496 23.6217 69.7233 23.9043 70.0332 24.2598C70.3522 24.6061 70.6211 25.112 70.8398 25.7773C71.0586 26.4427 71.168 27.222 71.168 28.1152V36.4688H74.1074V38H65.5762V36.4688H68.2285V28.0059C68.2285 26.9486 68.028 26.1602 67.627 25.6406C67.2259 25.1211 66.7018 24.8613 66.0547 24.8613C65.5898 24.8613 65.1068 24.9935 64.6055 25.2578C64.1133 25.513 63.6621 25.8548 63.252 26.2832C62.8418 26.7207 62.5046 27.2539 62.2402 27.8828C61.9759 28.5026 61.8438 29.1497 61.8438 29.8242V36.4688H64.5098V38H56.3887ZM78.7422 38.3691C77.6211 38.3691 76.7051 38.0729 75.9941 37.4805C75.2923 36.8789 74.9414 36.054 74.9414 35.0059C74.9414 34.459 75.0645 33.9622 75.3105 33.5156C75.5566 33.0599 75.8848 32.6816 76.2949 32.3809C77.1426 31.752 78.127 31.2279 79.248 30.8086C80.3418 30.4167 81.3262 29.9655 82.2012 29.4551C82.6022 29.2181 82.9258 28.931 83.1719 28.5938C83.418 28.2474 83.541 27.8646 83.541 27.4453C83.541 26.4062 83.2858 25.6361 82.7754 25.1348C82.265 24.6243 81.5495 24.3691 80.6289 24.3691C79.9818 24.3691 79.3665 24.474 78.7832 24.6836C78.1999 24.8841 77.7487 25.1621 77.4297 25.5176C78.013 25.5176 78.4733 25.6771 78.8105 25.9961C79.1569 26.306 79.3301 26.6751 79.3301 27.1035C79.3301 27.6777 79.1432 28.1471 78.7695 28.5117C78.3958 28.8672 77.9492 29.0449 77.4297 29.0449C76.8919 29.0449 76.4225 28.8581 76.0215 28.4844C75.6204 28.1016 75.4199 27.5501 75.4199 26.8301C75.4199 26.0371 75.8893 25.2122 76.8281 24.3555C77.2839 23.9453 77.8945 23.6081 78.6602 23.3438C79.4349 23.0703 80.2871 22.9336 81.2168 22.9336C81.9642 22.9336 82.6432 23.0156 83.2539 23.1797C83.8646 23.3438 84.4206 23.6126 84.9219 23.9863C85.4141 24.3509 85.7969 24.8613 86.0703 25.5176C86.3438 26.1738 86.4805 26.9486 86.4805 27.8418V34.1309C86.4805 34.4863 86.5215 34.8281 86.6035 35.1562C86.6947 35.4753 86.8678 35.7669 87.123 36.0312C87.3874 36.2956 87.7109 36.4277 88.0938 36.4277C89.2513 36.4277 89.8301 35.6165 89.8301 33.9941V31.957H91.3203V33.7207C91.3203 35.5436 90.9466 36.7923 90.1992 37.4668C89.8346 37.7949 89.4382 38.0273 89.0098 38.1641C88.5814 38.3008 88.0801 38.3691 87.5059 38.3691C86.8952 38.3691 86.3255 38.2507 85.7969 38.0137C85.2682 37.7767 84.8171 37.3939 84.4434 36.8652C84.0514 36.3275 83.8236 35.6895 83.7598 34.9512C83.3678 35.9447 82.7025 36.765 81.7637 37.4121C80.834 38.0501 79.8268 38.3691 78.7422 38.3691ZM79.4531 36.4004C80.0547 36.4004 80.6745 36.2227 81.3125 35.8672C81.9596 35.5026 82.4928 35.0469 82.9121 34.5C83.3314 33.9622 83.541 33.4382 83.541 32.9277V30.0156C82.9577 30.5898 82.2832 31.1048 81.5176 31.5605C80.7611 32.0163 80.1413 32.3535 79.6582 32.5723C79.166 32.791 78.7422 33.0918 78.3867 33.4746C78.0312 33.8574 77.8535 34.3223 77.8535 34.8691C77.8535 35.3249 77.9857 35.694 78.25 35.9766C78.5234 36.2591 78.9245 36.4004 79.4531 36.4004ZM97.3359 38.3691C96.5612 38.3691 95.8366 38.2051 95.1621 37.877C94.4876 37.5488 93.9408 37.0612 93.5215 36.4141C93.1113 35.7578 92.9062 34.9421 92.9062 33.9668V24.8613H90.1172V24.2188C90.819 24.0091 91.457 23.6354 92.0312 23.0977C92.6055 22.5508 93.0612 21.9629 93.3984 21.334C93.681 20.8236 93.8861 20.4225 94.0137 20.1309C94.1413 19.8301 94.2689 19.5293 94.3965 19.2285C94.5241 18.9277 94.7201 18.5221 94.9844 18.0117C95.1758 17.6198 95.3444 17.4238 95.4902 17.4238C95.7272 17.4238 95.8457 17.5833 95.8457 17.9023V23.3301H101.232V24.8887H95.8457V34.0488C95.8457 34.8509 96.028 35.4525 96.3926 35.8535C96.7572 36.2546 97.2402 36.4551 97.8418 36.4551C98.571 36.4551 99.1224 36.2181 99.4961 35.7441C99.8698 35.2611 100.057 34.418 100.057 33.2148V31.2461H101.697V32.9277C101.697 34.7324 101.374 36.0905 100.727 37.002C100.089 37.9134 98.9583 38.3691 97.3359 38.3691ZM109.613 38.3691C108.948 38.3691 108.264 38.3008 107.562 38.1641C106.87 38.0273 106.227 37.8132 105.635 37.5215C105.042 37.2298 104.564 36.8516 104.199 36.3867C103.844 35.9128 103.666 35.3431 103.666 34.6777C103.666 34.0853 103.853 33.5977 104.227 33.2148C104.6 32.832 105.038 32.6406 105.539 32.6406C106.049 32.6406 106.482 32.7819 106.838 33.0645C107.202 33.347 107.385 33.7572 107.385 34.2949C107.385 34.7598 107.248 35.1471 106.975 35.457C106.701 35.7578 106.391 35.9082 106.045 35.9082C106.391 36.1634 106.861 36.3776 107.453 36.5508C108.055 36.7148 108.656 36.7969 109.258 36.7969C109.896 36.7969 110.511 36.7285 111.104 36.5918C111.696 36.446 112.184 36.1999 112.566 35.8535C112.949 35.498 113.141 35.0104 113.141 34.3906C113.141 33.9531 113.004 33.5658 112.73 33.2285C112.466 32.8822 112.115 32.6087 111.678 32.4082C111.24 32.2077 110.739 32.0072 110.174 31.8066C109.618 31.6061 109.048 31.4329 108.465 31.2871C107.699 31.0866 106.956 30.8223 106.236 30.4941C105.525 30.1569 104.938 29.7148 104.473 29.168C104.017 28.6211 103.789 27.9329 103.789 27.1035C103.789 26.1647 104.072 25.39 104.637 24.7793C105.211 24.1595 105.936 23.6992 106.811 23.3984C107.695 23.0885 108.602 22.9336 109.531 22.9336C110.115 22.9336 110.739 23.002 111.404 23.1387C112.079 23.2663 112.712 23.4668 113.305 23.7402C113.906 24.0137 114.398 24.36 114.781 24.7793C115.164 25.1986 115.355 25.6999 115.355 26.2832C115.355 26.8939 115.178 27.3906 114.822 27.7734C114.476 28.1471 114.066 28.334 113.592 28.334C113.072 28.334 112.63 28.179 112.266 27.8691C111.901 27.5501 111.719 27.1172 111.719 26.5703C111.719 26.1966 111.81 25.9049 111.992 25.6953C112.184 25.4766 112.439 25.2624 112.758 25.0527C111.855 24.6152 110.835 24.3965 109.695 24.3965C108.757 24.3965 107.964 24.6016 107.316 25.0117C106.669 25.4219 106.346 26.0007 106.346 26.748C106.346 27.1035 106.478 27.4225 106.742 27.7051C107.016 27.9785 107.376 28.1973 107.822 28.3613C108.26 28.5345 108.757 28.7168 109.312 28.9082C109.878 29.0905 110.456 29.2591 111.049 29.4141C111.641 29.5781 112.215 29.7969 112.771 30.0703C113.337 30.3346 113.842 30.6263 114.289 30.9453C114.727 31.2643 115.077 31.6836 115.342 32.2031C115.615 32.7227 115.752 33.3105 115.752 33.9668C115.752 34.8327 115.57 35.5527 115.205 36.127C114.85 36.6921 114.371 37.1387 113.77 37.4668C113.168 37.7949 112.507 38.0273 111.787 38.1641C111.067 38.3008 110.342 38.3691 109.613 38.3691ZM121.672 38.3691C120.551 38.3691 119.635 38.0729 118.924 37.4805C118.222 36.8789 117.871 36.054 117.871 35.0059C117.871 34.459 117.994 33.9622 118.24 33.5156C118.486 33.0599 118.814 32.6816 119.225 32.3809C120.072 31.752 121.057 31.2279 122.178 30.8086C123.271 30.4167 124.256 29.9655 125.131 29.4551C125.532 29.2181 125.855 28.931 126.102 28.5938C126.348 28.2474 126.471 27.8646 126.471 27.4453C126.471 26.4062 126.215 25.6361 125.705 25.1348C125.195 24.6243 124.479 24.3691 123.559 24.3691C122.911 24.3691 122.296 24.474 121.713 24.6836C121.13 24.8841 120.678 25.1621 120.359 25.5176C120.943 25.5176 121.403 25.6771 121.74 25.9961C122.087 26.306 122.26 26.6751 122.26 27.1035C122.26 27.6777 122.073 28.1471 121.699 28.5117C121.326 28.8672 120.879 29.0449 120.359 29.0449C119.822 29.0449 119.352 28.8581 118.951 28.4844C118.55 28.1016 118.35 27.5501 118.35 26.8301C118.35 26.0371 118.819 25.2122 119.758 24.3555C120.214 23.9453 120.824 23.6081 121.59 23.3438C122.365 23.0703 123.217 22.9336 124.146 22.9336C124.894 22.9336 125.573 23.0156 126.184 23.1797C126.794 23.3438 127.35 23.6126 127.852 23.9863C128.344 24.3509 128.727 24.8613 129 25.5176C129.273 26.1738 129.41 26.9486 129.41 27.8418V34.1309C129.41 34.4863 129.451 34.8281 129.533 35.1562C129.624 35.4753 129.798 35.7669 130.053 36.0312C130.317 36.2956 130.641 36.4277 131.023 36.4277C132.181 36.4277 132.76 35.6165 132.76 33.9941V31.957H134.25V33.7207C134.25 35.5436 133.876 36.7923 133.129 37.4668C132.764 37.7949 132.368 38.0273 131.939 38.1641C131.511 38.3008 131.01 38.3691 130.436 38.3691C129.825 38.3691 129.255 38.2507 128.727 38.0137C128.198 37.7767 127.747 37.3939 127.373 36.8652C126.981 36.3275 126.753 35.6895 126.689 34.9512C126.298 35.9447 125.632 36.765 124.693 37.4121C123.764 38.0501 122.757 38.3691 121.672 38.3691ZM122.383 36.4004C122.984 36.4004 123.604 36.2227 124.242 35.8672C124.889 35.5026 125.423 35.0469 125.842 34.5C126.261 33.9622 126.471 33.4382 126.471 32.9277V30.0156C125.887 30.5898 125.213 31.1048 124.447 31.5605C123.691 32.0163 123.071 32.3535 122.588 32.5723C122.096 32.791 121.672 33.0918 121.316 33.4746C120.961 33.8574 120.783 34.3223 120.783 34.8691C120.783 35.3249 120.915 35.694 121.18 35.9766C121.453 36.2591 121.854 36.4004 122.383 36.4004ZM133.416 43.4824V41.8418H136.629V24.8613H133.977V23.3301L139.486 22.9336V25.6816C140.489 23.8496 141.975 22.9336 143.943 22.9336C144.9 22.9336 145.743 23.1478 146.473 23.5762C147.202 24.0046 147.812 24.5879 148.305 25.3262C148.806 26.0553 149.184 26.8802 149.439 27.8008C149.695 28.7122 149.822 29.6556 149.822 30.6309C149.822 32.1439 149.567 33.4837 149.057 34.6504C148.555 35.8171 147.84 36.7285 146.91 37.3848C145.98 38.041 144.878 38.3691 143.602 38.3691C142.79 38.3691 142.029 38.1777 141.318 37.7949C140.617 37.403 140.033 36.8652 139.568 36.1816V41.8145H142.59V43.4824H133.416ZM143.068 36.8242C143.761 36.8242 144.34 36.6237 144.805 36.2227C145.27 35.8216 145.639 35.3021 145.912 34.6641C146.195 34.0169 146.395 33.3242 146.514 32.5859C146.632 31.8477 146.691 31.1413 146.691 30.4668C146.691 29.5645 146.559 28.6712 146.295 27.7871C146.04 26.8939 145.643 26.151 145.105 25.5586C144.577 24.9661 143.898 24.6699 143.068 24.6699C142.339 24.6699 141.697 24.9297 141.141 25.4492C140.585 25.9688 140.152 26.6842 139.842 27.5957C139.532 28.498 139.377 29.5417 139.377 30.7266C139.377 31.3919 139.441 32.0846 139.568 32.8047C139.705 33.5156 139.915 34.1764 140.197 34.7871C140.489 35.3887 140.867 35.8809 141.332 36.2637C141.806 36.6374 142.385 36.8242 143.068 36.8242ZM150.096 43.4824V41.8418H153.309V24.8613H150.656V23.3301L156.166 22.9336V25.6816C157.169 23.8496 158.654 22.9336 160.623 22.9336C161.58 22.9336 162.423 23.1478 163.152 23.5762C163.882 24.0046 164.492 24.5879 164.984 25.3262C165.486 26.0553 165.864 26.8802 166.119 27.8008C166.374 28.7122 166.502 29.6556 166.502 30.6309C166.502 32.1439 166.247 33.4837 165.736 34.6504C165.235 35.8171 164.52 36.7285 163.59 37.3848C162.66 38.041 161.557 38.3691 160.281 38.3691C159.47 38.3691 158.709 38.1777 157.998 37.7949C157.296 37.403 156.713 36.8652 156.248 36.1816V41.8145H159.27V43.4824H150.096ZM159.748 36.8242C160.441 36.8242 161.02 36.6237 161.484 36.2227C161.949 35.8216 162.318 35.3021 162.592 34.6641C162.874 34.0169 163.075 33.3242 163.193 32.5859C163.312 31.8477 163.371 31.1413 163.371 30.4668C163.371 29.5645 163.239 28.6712 162.975 27.7871C162.719 26.8939 162.323 26.151 161.785 25.5586C161.257 24.9661 160.577 24.6699 159.748 24.6699C159.019 24.6699 158.376 24.9297 157.82 25.4492C157.264 25.9688 156.831 26.6842 156.521 27.5957C156.212 28.498 156.057 29.5417 156.057 30.7266C156.057 31.3919 156.12 32.0846 156.248 32.8047C156.385 33.5156 156.594 34.1764 156.877 34.7871C157.169 35.3887 157.547 35.8809 158.012 36.2637C158.486 36.6374 159.064 36.8242 159.748 36.8242Z" fill="white"/>
<path d="M202.75 27.3542C202.754 29.059 202.356 30.7408 201.587 32.2625C200.676 34.086 199.275 35.6198 197.541 36.692C195.807 37.7642 193.809 38.3326 191.771 38.3334C190.066 38.3378 188.384 37.9395 186.862 37.1709L179.5 39.625L181.954 32.2625C181.186 30.7408 180.787 29.059 180.792 27.3542C180.792 25.3156 181.361 23.3175 182.433 21.5837C183.505 19.8499 185.039 18.4489 186.862 17.5375C188.384 16.7689 190.066 16.3706 191.771 16.375H192.417C195.109 16.5236 197.652 17.6599 199.558 19.5665C201.465 21.4732 202.601 24.0161 202.75 26.7084V27.3542Z" stroke="white" stroke-width="2" stroke-linecap="round" stroke-linejoin="round"/>
</svg>
