<svg width="26" height="26" viewBox="0 0 26 26" fill="none" xmlns="http://www.w3.org/2000/svg">
<path d="M24.75 12.3542C24.7544 14.059 24.3561 15.7408 23.5875 17.2625C22.6761 19.086 21.2751 20.6198 19.5413 21.692C17.8075 22.7642 15.8094 23.3326 13.7708 23.3334C12.066 23.3378 10.3842 22.9395 8.8625 22.1709L1.5 24.625L3.95417 17.2625C3.18554 15.7408 2.78722 14.059 2.79167 12.3542C2.79246 10.3156 3.36079 8.31754 4.43301 6.58373C5.50523 4.84993 7.039 3.44888 8.8625 2.53752C10.3842 1.76889 12.066 1.37058 13.7708 1.37502H14.4167C17.1089 1.52355 19.6518 2.65992 21.5585 4.56655C23.4651 6.47317 24.6015 9.01607 24.75 11.7084V12.3542Z" stroke="#FFDD00" stroke-width="2" stroke-linecap="round" stroke-linejoin="round"/>
</svg>
