<svg width="72" height="72" viewBox="0 0 72 72" fill="none" xmlns="http://www.w3.org/2000/svg">
<path d="M70.3536 39.0283C69.7506 45.5534 67.3018 51.7719 63.2936 56.956C59.2854 62.1401 53.8837 66.0756 47.7205 68.3017C41.5573 70.5279 34.8876 70.9528 28.4917 69.5267C22.0959 68.1006 16.2384 64.8824 11.6048 60.2488C6.97121 55.6152 3.75306 49.7578 2.32694 43.3619C0.900815 36.9661 1.3257 30.2963 3.55189 24.1331C5.77807 17.97 9.71348 12.5682 14.8976 8.56005C20.0817 4.55187 26.3002 2.103 32.8253 1.5C29.005 6.66836 27.1667 13.0362 27.6447 19.4454C28.1226 25.8546 30.8851 31.8794 35.4297 36.424C39.9742 40.9685 45.999 43.731 52.4082 44.209C58.8174 44.6869 65.1853 42.8486 70.3536 39.0283Z" stroke="#D7B12D" stroke-width="2" stroke-linecap="round" stroke-linejoin="round"/>
</svg>
