<svg width="66" height="27" viewBox="0 0 66 27" fill="none" xmlns="http://www.w3.org/2000/svg">
<path d="M19.76 13.66C19.76 14.9933 19.5333 16.22 19.08 17.34C18.64 18.46 18.0133 19.4267 17.2 20.24C16.3867 21.0533 15.42 21.68 14.3 22.12C13.1933 22.5733 11.9733 22.8 10.64 22.8C9.30667 22.8 8.08 22.5733 6.96 22.12C5.84 21.68 4.87333 21.0467 4.06 20.22C3.24667 19.4067 2.61333 18.4467 2.16 17.34C1.72 16.22 1.5 14.9933 1.5 13.66C1.5 12.34 1.72 11.1267 2.16 10.02C2.61333 8.9 3.24667 7.94 4.06 7.14C4.87333 6.32667 5.84 5.7 6.96 5.26C8.08 4.80667 9.30667 4.58 10.64 4.58C11.9733 4.58 13.1933 4.80667 14.3 5.26C15.42 5.7 16.3867 6.32667 17.2 7.14C18.0133 7.94 18.64 8.9 19.08 10.02C19.5333 11.1267 19.76 12.34 19.76 13.66ZM18.62 13.66C18.62 12.06 18.2867 10.6533 17.62 9.44C16.9667 8.21333 16.04 7.25333 14.84 6.56C13.6533 5.86667 12.2533 5.52 10.64 5.52C9.02667 5.52 7.62 5.86667 6.42 6.56C5.22 7.25333 4.28667 8.21333 3.62 9.44C2.95333 10.6533 2.62 12.06 2.62 13.66C2.62 15.2733 2.95333 16.7 3.62 17.94C4.28667 19.1667 5.22 20.12 6.42 20.8C7.62 21.4933 9.02667 21.84 10.64 21.84C12.2533 21.84 13.6533 21.4933 14.84 20.8C16.04 20.12 16.9667 19.1667 17.62 17.94C18.2867 16.7 18.62 15.2733 18.62 13.66ZM14.54 15.44C14.4867 15.88 14.44 16.3267 14.4 16.78C14.36 17.2333 14.32 17.6933 14.28 18.16C13.8667 18.32 13.4933 18.4533 13.16 18.56C12.8267 18.6533 12.54 18.7333 12.3 18.8C12.06 18.8533 11.8067 18.8933 11.54 18.92C11.2867 18.9333 11.0267 18.94 10.76 18.94C9.69333 18.94 8.75333 18.7333 7.94 18.32C7.12667 17.8933 6.48667 17.2933 6.02 16.52C5.56667 15.7467 5.34 14.82 5.34 13.74C5.34 12.7 5.57333 11.78 6.04 10.98C6.50667 10.18 7.14 9.55333 7.94 9.1C8.75333 8.63333 9.68 8.4 10.72 8.4C11.36 8.4 12 8.49333 12.64 8.68C12.9467 8.76 13.2067 8.82 13.42 8.86C13.6333 8.88667 13.7933 8.9 13.9 8.9C13.9667 8.9 14.0333 8.9 14.1 8.9C14.18 8.88667 14.2533 8.87333 14.32 8.86C14.32 9.31333 14.3333 9.79333 14.36 10.3C14.3867 10.8067 14.42 11.3333 14.46 11.88C14.3667 11.8933 14.2667 11.9067 14.16 11.92C14.0533 11.92 13.9467 11.92 13.84 11.92C13.4667 10.0667 12.4733 9.14 10.86 9.14C10.06 9.14 9.40667 9.36 8.9 9.8C8.40667 10.2267 8.04 10.78 7.8 11.46C7.57333 12.14 7.46 12.8667 7.46 13.64C7.46 14.44 7.58 15.1867 7.82 15.88C8.07333 16.5733 8.46 17.1333 8.98 17.56C9.5 17.9867 10.1733 18.2 11 18.2C11.7467 18.2 12.3667 17.9733 12.86 17.52C13.3667 17.0667 13.72 16.3667 13.92 15.42C14.1333 15.3933 14.34 15.4 14.54 15.44ZM34.834 17.4512L33.9062 20H26.0938V19.6387C28.3919 17.5423 30.0098 15.8301 30.9473 14.502C31.8848 13.1738 32.3535 11.9596 32.3535 10.8594C32.3535 10.0195 32.0964 9.32943 31.582 8.78906C31.0677 8.2487 30.4525 7.97852 29.7363 7.97852C29.0853 7.97852 28.4993 8.17057 27.9785 8.55469C27.4642 8.93229 27.0833 9.48893 26.8359 10.2246H26.4746C26.6374 9.02018 27.054 8.0957 27.7246 7.45117C28.4017 6.80664 29.2448 6.48438 30.2539 6.48438C31.3281 6.48438 32.2233 6.82943 32.9395 7.51953C33.6621 8.20964 34.0234 9.02344 34.0234 9.96094C34.0234 10.6315 33.8672 11.3021 33.5547 11.9727C33.0729 13.0273 32.2917 14.1439 31.2109 15.3223C29.5898 17.0931 28.5775 18.1608 28.1738 18.5254H31.6309C32.334 18.5254 32.8255 18.4993 33.1055 18.4473C33.3919 18.3952 33.6491 18.291 33.877 18.1348C34.1048 17.972 34.3034 17.7441 34.4727 17.4512H34.834ZM36.3867 13.457C36.3867 11.9466 36.6146 10.6478 37.0703 9.56055C37.526 8.4668 38.1315 7.65299 38.8867 7.11914C39.4727 6.69596 40.0781 6.48438 40.7031 6.48438C41.7188 6.48438 42.6302 7.00195 43.4375 8.03711C44.4466 9.31966 44.9512 11.0579 44.9512 13.252C44.9512 14.7884 44.7298 16.0938 44.2871 17.168C43.8444 18.2422 43.278 19.0234 42.5879 19.5117C41.9043 19.9935 41.2435 20.2344 40.6055 20.2344C39.3424 20.2344 38.291 19.4889 37.4512 17.998C36.7415 16.7415 36.3867 15.2279 36.3867 13.457ZM38.3008 13.7012C38.3008 15.5241 38.5254 17.0117 38.9746 18.1641C39.3457 19.1341 39.8991 19.6191 40.6348 19.6191C40.9863 19.6191 41.3509 19.4629 41.7285 19.1504C42.1061 18.8314 42.3926 18.3008 42.5879 17.5586C42.8874 16.4388 43.0371 14.86 43.0371 12.8223C43.0371 11.3118 42.8809 10.0521 42.5684 9.04297C42.334 8.29427 42.0312 7.76367 41.6602 7.45117C41.3932 7.23633 41.071 7.12891 40.6934 7.12891C40.2507 7.12891 39.8568 7.32747 39.5117 7.72461C39.043 8.26497 38.724 9.11458 38.5547 10.2734C38.3854 11.4323 38.3008 12.5749 38.3008 13.7012ZM54.834 17.4512L53.9062 20H46.0938V19.6387C48.3919 17.5423 50.0098 15.8301 50.9473 14.502C51.8848 13.1738 52.3535 11.9596 52.3535 10.8594C52.3535 10.0195 52.0964 9.32943 51.582 8.78906C51.0677 8.2487 50.4525 7.97852 49.7363 7.97852C49.0853 7.97852 48.4993 8.17057 47.9785 8.55469C47.4642 8.93229 47.0833 9.48893 46.8359 10.2246H46.4746C46.6374 9.02018 47.054 8.0957 47.7246 7.45117C48.4017 6.80664 49.2448 6.48438 50.2539 6.48438C51.3281 6.48438 52.2233 6.82943 52.9395 7.51953C53.6621 8.20964 54.0234 9.02344 54.0234 9.96094C54.0234 10.6315 53.8672 11.3021 53.5547 11.9727C53.0729 13.0273 52.2917 14.1439 51.2109 15.3223C49.5898 17.0931 48.5775 18.1608 48.1738 18.5254H51.6309C52.334 18.5254 52.8255 18.4993 53.1055 18.4473C53.3919 18.3952 53.6491 18.291 53.877 18.1348C54.1048 17.972 54.3034 17.7441 54.4727 17.4512H54.834ZM64.9707 15.1172V16.5039H63.1934V20H61.582V16.5039H55.9766V15.2539L62.1191 6.48438H63.1934V15.1172H64.9707ZM61.582 15.1172V8.54492L56.9336 15.1172H61.582Z" fill="#D7B12D"/>
</svg>
