<svg width="467" height="122" viewBox="0 0 467 122" fill="none" xmlns="http://www.w3.org/2000/svg">
<path d="M158.628 97.272C158.628 98.552 158.82 99.832 159.204 101.112C159.588 102.392 160.132 103.288 160.836 103.8C161.86 104.568 162.628 105.304 163.14 106.008C163.652 106.648 163.908 107.48 163.908 108.504C163.908 109.72 163.364 110.68 162.276 111.384C161.188 112.088 159.94 112.44 158.532 112.44C155.652 112.44 153.316 111.16 151.524 108.6C149.796 106.04 148.932 102.264 148.932 97.272C149.252 57.656 149.476 35.544 149.604 30.936C149.732 29.144 150.212 27.8 151.044 26.904C151.876 26.008 152.964 25.56 154.308 25.56C155.716 25.56 156.868 26.104 157.764 27.192C158.724 28.28 159.204 29.528 159.204 30.936L158.628 97.272ZM216.406 97.848C217.75 97.848 218.806 98.264 219.574 99.096C220.342 99.864 220.726 100.856 220.726 102.072C220.726 103.544 220.31 104.76 219.478 105.72C217.302 108.088 214.326 109.976 210.55 111.384C206.838 112.792 202.902 113.496 198.742 113.496C193.75 113.496 189.27 112.44 185.302 110.328C181.398 108.152 178.326 105.144 176.086 101.304C173.91 97.464 172.822 93.112 172.822 88.248C172.822 83.128 173.974 78.52 176.278 74.424C178.582 70.264 181.686 67 185.59 64.632C189.558 62.264 193.91 61.08 198.646 61.08C202.678 61.08 206.294 61.752 209.494 63.096C212.758 64.376 215.286 66.2 217.078 68.568C218.87 70.872 219.766 73.528 219.766 76.536C219.766 79.352 218.87 81.848 217.078 84.024C215.35 86.2 212.886 87.896 209.686 89.112C206.55 90.264 202.966 90.84 198.934 90.84C192.278 90.84 186.806 89.496 182.518 86.808C182.454 87.192 182.422 87.8 182.422 88.632C182.422 93.24 183.894 96.952 186.838 99.768C189.846 102.52 193.814 103.896 198.742 103.896C201.878 103.896 204.502 103.544 206.614 102.84C208.79 102.072 210.71 100.92 212.374 99.384C213.718 98.36 215.062 97.848 216.406 97.848ZM198.646 70.68C195.51 70.68 192.726 71.32 190.294 72.6C187.926 73.88 186.07 75.768 184.726 78.264C186.518 79.48 188.63 80.472 191.062 81.24C193.494 81.944 196.118 82.296 198.934 82.296C202.262 82.296 204.95 81.816 206.998 80.856C209.11 79.832 210.166 78.552 210.166 77.016C210.166 75.224 209.078 73.72 206.902 72.504C204.79 71.288 202.038 70.68 198.646 70.68ZM279.282 103.8C280.242 104.568 280.978 105.304 281.49 106.008C282.002 106.648 282.258 107.48 282.258 108.504C282.258 109.72 281.714 110.68 280.626 111.384C279.538 112.088 278.29 112.44 276.882 112.44C274.066 112.44 271.794 111.224 270.066 108.792C268.402 106.36 267.57 102.744 267.57 97.944L267.666 82.296C267.666 78.776 266.61 75.928 264.498 73.752C262.45 71.576 259.762 70.488 256.434 70.488C252.722 70.488 249.842 71.672 247.794 74.04C245.81 76.344 244.754 79.544 244.626 83.64L244.242 106.968C244.242 108.504 243.762 109.72 242.802 110.616C241.906 111.448 240.85 111.864 239.634 111.864C238.354 111.864 237.202 111.448 236.178 110.616C235.154 109.72 234.642 108.504 234.642 106.968L234.93 87.192L235.122 76.728C235.186 75.448 235.026 74.168 234.642 72.888C234.322 71.608 233.81 70.712 233.106 70.2C232.146 69.432 231.41 68.728 230.898 68.088C230.386 67.384 230.13 66.52 230.13 65.496C230.13 64.28 230.674 63.32 231.762 62.616C232.85 61.912 234.098 61.56 235.506 61.56C239.218 61.56 241.874 63.544 243.474 67.512C245.074 65.656 246.994 64.216 249.234 63.192C251.474 62.104 253.874 61.56 256.434 61.56C260.402 61.56 263.954 62.36 267.09 63.96C270.29 65.496 272.786 67.672 274.578 70.488C276.37 73.24 277.266 76.376 277.266 79.896L277.074 97.272C277.074 98.552 277.266 99.832 277.65 101.112C278.034 102.392 278.578 103.288 279.282 103.8ZM343.571 103.8C344.595 104.568 345.363 105.304 345.875 106.008C346.387 106.648 346.643 107.48 346.643 108.504C346.643 109.72 346.099 110.68 345.011 111.384C343.923 112.088 342.675 112.44 341.267 112.44C339.411 112.44 337.747 111.896 336.275 110.808C334.867 109.72 333.779 108.088 333.011 105.912C330.899 108.088 328.403 109.752 325.523 110.904C322.707 112.056 319.635 112.632 316.307 112.632C311.315 112.632 306.835 111.544 302.867 109.368C298.963 107.128 295.891 104.024 293.651 100.056C291.411 96.088 290.291 91.576 290.291 86.52C290.291 81.592 291.411 77.112 293.651 73.08C295.955 69.048 299.091 65.88 303.059 63.576C307.027 61.272 311.443 60.12 316.307 60.12C319.315 60.12 322.163 60.664 324.851 61.752C327.539 62.776 329.971 64.28 332.147 66.264C332.275 56.536 332.339 49.688 332.339 45.72C332.467 35.224 332.531 29.976 332.531 29.976C332.531 28.696 332.979 27.608 333.875 26.712C334.771 25.752 335.859 25.272 337.139 25.272C338.611 25.272 339.795 25.72 340.691 26.616C341.651 27.448 342.131 28.568 342.131 29.976L341.747 62.328L341.363 97.272C341.363 98.552 341.555 99.832 341.939 101.112C342.323 102.392 342.867 103.288 343.571 103.8ZM316.307 103.032C320.851 103.032 324.563 101.528 327.443 98.52C330.323 95.512 331.763 91.512 331.763 86.52C331.763 83.32 331.091 80.472 329.747 77.976C328.403 75.416 326.547 73.432 324.179 72.024C321.875 70.552 319.251 69.816 316.307 69.816C313.235 69.816 310.451 70.552 307.955 72.024C305.459 73.432 303.507 75.416 302.099 77.976C300.691 80.536 299.987 83.384 299.987 86.52C299.987 91.512 301.491 95.512 304.499 98.52C307.507 101.528 311.443 103.032 316.307 103.032ZM398.187 97.848C399.531 97.848 400.587 98.264 401.355 99.096C402.123 99.864 402.507 100.856 402.507 102.072C402.507 103.544 402.091 104.76 401.259 105.72C399.083 108.088 396.107 109.976 392.331 111.384C388.619 112.792 384.683 113.496 380.523 113.496C375.531 113.496 371.051 112.44 367.083 110.328C363.179 108.152 360.107 105.144 357.867 101.304C355.691 97.464 354.603 93.112 354.603 88.248C354.603 83.128 355.755 78.52 358.059 74.424C360.363 70.264 363.467 67 367.371 64.632C371.339 62.264 375.691 61.08 380.427 61.08C384.459 61.08 388.075 61.752 391.275 63.096C394.539 64.376 397.067 66.2 398.859 68.568C400.651 70.872 401.547 73.528 401.547 76.536C401.547 79.352 400.651 81.848 398.859 84.024C397.131 86.2 394.667 87.896 391.467 89.112C388.331 90.264 384.747 90.84 380.715 90.84C374.059 90.84 368.587 89.496 364.299 86.808C364.235 87.192 364.203 87.8 364.203 88.632C364.203 93.24 365.675 96.952 368.619 99.768C371.627 102.52 375.595 103.896 380.523 103.896C383.659 103.896 386.283 103.544 388.395 102.84C390.571 102.072 392.491 100.92 394.155 99.384C395.499 98.36 396.843 97.848 398.187 97.848ZM380.427 70.68C377.291 70.68 374.507 71.32 372.075 72.6C369.707 73.88 367.851 75.768 366.507 78.264C368.299 79.48 370.411 80.472 372.843 81.24C375.275 81.944 377.899 82.296 380.715 82.296C384.043 82.296 386.731 81.816 388.779 80.856C390.891 79.832 391.947 78.552 391.947 77.016C391.947 75.224 390.859 73.72 388.683 72.504C386.571 71.288 383.819 70.68 380.427 70.68ZM452.039 101.496C453.319 101.496 454.439 101.976 455.399 102.936C456.359 103.896 456.839 105.016 456.839 106.296C456.839 107.64 456.359 108.792 455.399 109.752C454.439 110.648 453.319 111.096 452.039 111.096H416.423C414.951 111.096 413.735 110.68 412.775 109.848C411.879 109.016 411.431 107.992 411.431 106.776C411.431 105.624 411.847 104.6 412.679 103.704L439.271 71.928H416.903C415.559 71.928 414.407 71.448 413.447 70.488C412.551 69.528 412.103 68.408 412.103 67.128C412.103 65.784 412.551 64.664 413.447 63.768C414.407 62.808 415.559 62.328 416.903 62.328H450.119C451.527 62.328 452.679 62.712 453.575 63.48C454.535 64.248 455.047 65.176 455.111 66.264C455.111 67.608 454.663 68.76 453.767 69.72L427.175 101.496H452.039Z" fill="black"/>
<path fill-rule="evenodd" clip-rule="evenodd" d="M129.948 37.222C129.948 23.4149 118.755 12.222 104.948 12.222H25C11.1929 12.222 0 23.4149 0 37.222V96.9342C0 110.741 11.1929 121.934 25 121.934H104.948C118.755 121.934 129.948 110.741 129.948 96.9342V37.222ZM108.581 116.886C109.384 116.13 109.891 115.269 110.101 114.304C110.253 113.606 110.149 112.885 110.021 112.182L92.357 42.1981C92.101 41.1101 91.429 40.2141 90.341 39.5101C89.317 38.8061 88.165 38.4541 86.885 38.4541C85.733 38.4541 84.645 38.8061 83.621 39.5101C82.661 40.2141 82.021 41.1101 81.701 42.1981L64.805 97.9741L64.5479 99.1312C64.4859 99.4101 64.0195 99.4009 63.941 99.1261C63.7278 98.3797 63.6284 97.5978 63.3914 96.8585L46.085 42.8701C45.765 41.7181 45.157 40.8221 44.261 40.1821C43.365 39.4781 42.341 39.1261 41.189 39.1261C39.973 39.1261 38.885 39.4781 37.925 40.1821C36.965 40.8861 36.357 41.8141 36.101 42.9661L20.165 111.894C20.037 112.406 19.973 112.758 19.973 112.95C19.973 114.23 20.421 115.35 21.317 116.31C22.277 117.27 23.429 117.75 24.773 117.75C25.925 117.75 26.981 117.398 27.941 116.694C28.965 115.99 29.573 115.126 29.765 114.102C30.981 108.214 32.741 99.6381 35.045 88.3741C37.4076 77.1358 39.4517 67.522 41.1772 59.5328C41.1851 59.4962 41.1876 59.5032 41.1894 59.4658C41.2143 58.9319 41.8713 58.8855 41.9479 59.4144C41.9523 59.4451 41.9619 59.4929 41.9715 59.5223L59.429 112.758C59.813 113.846 60.485 114.742 61.445 115.446C62.469 116.086 63.557 116.406 64.709 116.406C65.861 116.406 66.885 116.086 67.781 115.446C68.677 114.742 69.317 113.814 69.701 112.662L86.021 59.2861C86.1017 58.8624 86.7083 58.8624 86.789 59.2861L90.629 75.2221C92.101 81.3021 93.765 88.2141 95.621 95.9581C97.477 103.638 98.949 109.91 100.037 114.774C100.229 115.798 100.805 116.662 101.765 117.366C102.789 118.07 103.845 118.422 104.933 118.422C106.341 118.422 107.557 117.91 108.581 116.886Z" fill="#D7B12D"/>
</svg>
